<?xml version="1.0" standalone="no"?>
<!DOCTYPE svg PUBLIC "-//W3C//DTD SVG 20010904//EN"
 "http://www.w3.org/TR/2001/REC-SVG-20010904/DTD/svg10.dtd">
<svg version="1.0" xmlns="http://www.w3.org/2000/svg"
 width="512.000000pt" height="512.000000pt" viewBox="0 0 512.000000 512.000000"
 preserveAspectRatio="xMidYMid meet">
<metadata>
Created by potrace 1.14, written by Peter Selinger 2001-2017
</metadata>
<g transform="translate(0.000000,512.000000) scale(0.100000,-0.100000)"
fill="#000000" stroke="none">
<path d="M2369 5066 c-2 -2 -38 -6 -79 -10 -41 -3 -84 -8 -95 -10 -11 -2 -40
-7 -65 -11 -78 -13 -92 -16 -175 -35 -662 -156 -1247 -583 -1590 -1162 -200
-336 -309 -673 -342 -1063 -12 -139 -5 -436 12 -526 3 -13 7 -41 11 -64 37
-257 161 -607 290 -822 10 -17 36 -60 57 -95 31 -52 97 -146 134 -193 271
-337 562 -571 929 -745 89 -42 304 -127 344 -135 8 -2 49 -12 90 -24 105 -28
246 -56 335 -66 156 -18 208 -21 361 -19 178 3 210 5 339 23 558 82 1054 329
1445 720 364 365 592 789 690 1282 22 112 24 129 36 279 12 147 6 397 -11 503
-2 12 -6 38 -9 57 -5 34 -34 185 -40 205 -1 6 -8 30 -15 55 -8 25 -14 50 -15
55 -6 29 -48 150 -75 219 -249 624 -746 1126 -1376 1388 -231 97 -444 151
-730 187 -66 8 -448 14 -456 7z"/>
</g>
</svg>
